<svg width="30" height="30" viewBox="0 0 30 30" fill="none" xmlns="http://www.w3.org/2000/svg">
<g id="ic:round-apple">
<path id="Vector" d="M23.8298 28.6463C22.2144 30.2122 20.4508 29.965 18.753 29.2232C16.9563 28.465 15.308 28.432 13.4125 29.2232C11.0389 30.2452 9.78621 29.9485 8.36866 28.6463C0.324926 20.3553 1.51171 7.7293 10.6433 7.26778C12.8685 7.38316 14.418 8.48752 15.7201 8.58642C17.6651 8.19083 19.5277 7.0535 21.6046 7.20185C24.0935 7.39964 25.9726 8.38863 27.2088 10.1688C22.0661 13.2511 23.2858 20.0257 28 21.9212C27.0605 24.3937 25.8407 26.8497 23.8133 28.6628L23.8298 28.6463ZM15.5553 7.16888C15.308 3.49315 18.2915 0.46027 21.72 0.163574C22.198 4.41621 17.8629 7.58096 15.5553 7.16888Z" fill="black"/>
</g>
</svg>
