<svg width="56" height="58" viewBox="0 0 56 58" fill="none" xmlns="http://www.w3.org/2000/svg">
<path d="M7 15.2188C7 13.1716 7.79896 11.2083 9.22111 9.76077C10.6433 8.31322 12.5721 7.5 14.5833 7.5H20.8168C21.281 7.5 21.7261 7.68767 22.0543 8.02172C22.3825 8.35576 22.5668 8.80883 22.5668 9.28125C22.5668 9.75367 22.3825 10.2067 22.0543 10.5408C21.7261 10.8748 21.281 11.0625 20.8168 11.0625H14.5833C13.5004 11.0625 12.4618 11.5004 11.696 12.2798C10.9302 13.0593 10.5 14.1164 10.5 15.2188V21.5636C10.5 22.036 10.3156 22.489 9.98744 22.8231C9.65925 23.1571 9.21413 23.3448 8.75 23.3448C8.28587 23.3448 7.84075 23.1571 7.51256 22.8231C7.18437 22.489 7 22.036 7 21.5636V15.2188ZM33.4332 9.28125C33.4332 8.80883 33.6175 8.35576 33.9457 8.02172C34.2739 7.68767 34.719 7.5 35.1832 7.5H41.4167C43.4279 7.5 45.3567 8.31322 46.7789 9.76077C48.201 11.2083 49 13.1716 49 15.2188V21.5636C49 22.036 48.8156 22.489 48.4874 22.8231C48.1592 23.1571 47.7141 23.3448 47.25 23.3448C46.7859 23.3448 46.3407 23.1571 46.0126 22.8231C45.6844 22.489 45.5 22.036 45.5 21.5636V15.2188C45.5 14.1164 45.0698 13.0593 44.304 12.2798C43.5382 11.5004 42.4996 11.0625 41.4167 11.0625H35.1832C34.719 11.0625 34.2739 10.8748 33.9457 10.5408C33.6175 10.2067 33.4332 9.75367 33.4332 9.28125ZM8.75 34.4052C9.21413 34.4052 9.65925 34.5929 9.98744 34.9269C10.3156 35.261 10.5 35.714 10.5 36.1864V42.5312C10.5 43.6336 10.9302 44.6907 11.696 45.4702C12.4618 46.2496 13.5004 46.6875 14.5833 46.6875H20.8168C21.281 46.6875 21.7261 46.8752 22.0543 47.2092C22.3825 47.5433 22.5668 47.9963 22.5668 48.4688C22.5668 48.9412 22.3825 49.3942 22.0543 49.7283C21.7261 50.0623 21.281 50.25 20.8168 50.25H14.5833C12.5721 50.25 10.6433 49.4368 9.22111 47.9892C7.79896 46.5417 7 44.5784 7 42.5312V36.1864C7 35.714 7.18437 35.261 7.51256 34.9269C7.84075 34.5929 8.28587 34.4052 8.75 34.4052ZM47.25 34.4052C47.7141 34.4052 48.1592 34.5929 48.4874 34.9269C48.8156 35.261 49 35.714 49 36.1864V42.5312C49 44.5784 48.201 46.5417 46.7789 47.9892C45.3567 49.4368 43.4279 50.25 41.4167 50.25H35.1832C34.719 50.25 34.2739 50.0623 33.9457 49.7283C33.6175 49.3942 33.4332 48.9412 33.4332 48.4688C33.4332 47.9963 33.6175 47.5433 33.9457 47.2092C34.2739 46.8752 34.719 46.6875 35.1832 46.6875H41.4167C42.4996 46.6875 43.5382 46.2496 44.304 45.4702C45.0698 44.6907 45.5 43.6336 45.5 42.5312V36.1864C45.5 35.714 45.6844 35.261 46.0126 34.9269C46.3407 34.5929 46.7859 34.4052 47.25 34.4052ZM31.5 29.4688C31.5 28.5239 31.1313 27.6178 30.4749 26.9497C29.8185 26.2816 28.9283 25.9062 28 25.9062C27.0717 25.9062 26.1815 26.2816 25.5251 26.9497C24.8687 27.6178 24.5 28.5239 24.5 29.4688C24.5 30.4136 24.8687 31.3197 25.5251 31.9878C26.1815 32.6559 27.0717 33.0312 28 33.0312C28.9283 33.0312 29.8185 32.6559 30.4749 31.9878C31.1313 31.3197 31.5 30.4136 31.5 29.4688ZM32.5092 18.9154C32.2774 18.5141 31.9467 18.1813 31.5497 17.9501C31.1527 17.7189 30.7032 17.5973 30.2458 17.5973H25.809C25.3603 17.5974 24.9191 17.7146 24.5276 17.9377C24.136 18.1608 23.8072 18.4823 23.5725 18.8715L22.5517 20.5625H20.125C19.1194 20.5625 18.155 20.9691 17.4439 21.6929C16.7328 22.4167 16.3333 23.3983 16.3333 24.4219V35.7031C16.3333 36.7267 16.7328 37.7083 17.4439 38.4321C18.155 39.1559 19.1194 39.5625 20.125 39.5625H35.875C36.8806 39.5625 37.845 39.1559 38.5561 38.4321C39.2672 37.7083 39.6667 36.7267 39.6667 35.7031V24.4219C39.6667 23.3983 39.2672 22.4167 38.5561 21.6929C37.845 20.9691 36.8806 20.5625 35.875 20.5625H33.46L32.5092 18.9154ZM22.75 29.4688C22.75 28.0515 23.3031 26.6923 24.2877 25.6901C25.2723 24.688 26.6076 24.125 28 24.125C29.3924 24.125 30.7277 24.688 31.7123 25.6901C32.6969 26.6923 33.25 28.0515 33.25 29.4688C33.25 30.886 32.6969 32.2452 31.7123 33.2474C30.7277 34.2495 29.3924 34.8125 28 34.8125C26.6076 34.8125 25.2723 34.2495 24.2877 33.2474C23.3031 32.2452 22.75 30.886 22.75 29.4688Z" fill="#307C42"/>
</svg>
