<svg width="68" height="68" viewBox="0 0 68 68" fill="none" xmlns="http://www.w3.org/2000/svg">
<g id="Group 60">
<circle id="Ellipse 1" cx="34" cy="34" r="34" fill="#ECF6FF"/>
<g id="Group 11">
<g id="Group 10">
<path id="Ellipse 5" d="M30.1396 23.8076C35.7433 23.8076 40.2861 28.3504 40.2861 33.9541C40.2861 39.5579 35.7433 44.1006 30.1396 44.1006C24.5359 44.1006 19.9932 39.5579 19.9932 33.9541C19.9932 28.3503 24.5359 23.8076 30.1396 23.8076Z" fill="#2C8CDD" stroke="#2C8CDD"/>
<circle id="Ellipse 4" cx="30" cy="34" r="6.5" fill="#2C8CDD" stroke="#2C8CDD"/>
</g>
<path id="Vector 4" d="M13 51.0972H17.9834" stroke="#2C8CDD" stroke-width="5"/>
<path id="Vector 3" d="M13.0752 16.21H15.1543C17.1103 16.21 18.9368 15.2325 20.0218 13.605V13.605C21.1068 11.9775 22.9333 11 24.8893 11H35.716C37.5361 11 39.2087 12.001 40.0688 13.605V13.605C40.9289 15.209 42.6015 16.21 44.4215 16.21H46.1584C50.4891 16.21 53.9997 19.7207 53.9997 24.0513V39.6174C53.9997 45.9142 48.8951 51.0189 42.5983 51.0189V51.0189" stroke="#2C8CDD" stroke-width="5"/>
<g id="Group 9">
<path id="Vector 6" d="M27.6571 50.0061C27.1719 49.9038 26.6735 50.1492 26.4936 50.6113C25.6576 52.7576 25.2847 54.3665 24.9618 56.8553C24.8965 57.3584 24.4672 57.7386 23.9599 57.7386C23.3555 57.7386 22.8866 57.2072 22.9778 56.6097C23.2643 54.7319 23.8999 51.0029 24.6586 49.2813C24.9099 48.7109 25.1861 47.8357 24.9815 47.2468C23.6004 43.2718 23.0571 40.3841 26.5143 33.9537C29.006 30.1784 31.014 28.7042 35.8016 26.6295C39.232 24.9971 41.6291 24.6819 45.9317 24.8554C46.4074 24.8745 46.804 25.2312 46.8544 25.7046C47.1188 28.1858 46.753 29.7036 46.5235 32.2925C46.0362 35.5937 45.6601 37.4371 44.2583 40.6739C42.8073 43.4918 41.6929 44.9696 39.0484 47.394C37.0845 48.9412 35.7007 49.4677 32.9323 50.0368C30.8397 50.3607 29.5525 50.4057 27.6571 50.0061Z" fill="#2C8CDD" stroke="#2C8CDD" stroke-width="2"/>
<path id="Vector 7" d="M27 45.2891L27.9548 46C32.3967 39.7757 35.0645 36.5327 40 31C37.3763 32.6445 35.9966 33.7137 33.6836 35.8341C33.0103 34.9085 32.9733 34.124 33.0226 32.6351C31.2333 34.4295 30.963 35.9112 31.113 38.9621L27 45.2891Z" fill="white" stroke="white" stroke-width="2"/>
<path id="Ellipse 2" d="M38.5967 37.4529C39.7882 37.4529 40.834 38.3451 40.834 39.5388C40.8338 40.7324 39.7881 41.6238 38.5967 41.6238C37.4054 41.6236 36.3605 40.7323 36.3604 39.5388C36.3604 38.3452 37.4053 37.453 38.5967 37.4529Z" fill="white" stroke="#2C8CDD"/>
<path id="Ellipse 3" d="M33.9912 41.7891C35.2107 41.7891 36.1992 42.7776 36.1992 43.9971C36.1992 45.2166 35.2107 46.2051 33.9912 46.2051C32.7717 46.205 31.7832 45.2165 31.7832 43.9971C31.7833 42.7777 32.7718 41.7891 33.9912 41.7891Z" fill="white" stroke="#2C8CDD" stroke-width="2"/>
</g>
</g>
</g>
</svg>
