<?xml version="1.0" encoding="UTF-8"?>
<svg version="1.1" xmlns="http://www.w3.org/2000/svg" width="68" height="68">
<path d="M0 0 C7.56864542 5.5733766 14.27846565 12.43029437 16 22 C16.83321743 34.37532773 16.07433418 43.47629532 7.8125 53.3125 C1.09308519 60.36455911 -5.79519794 64.02491246 -15.53271484 64.29321289 C-27.48168286 64.4033609 -34.95216749 61.87281682 -43.796875 53.4453125 C-51.78947469 44.57409369 -52.70777682 35.41875966 -52.16601562 23.93554688 C-51.37811104 14.74950633 -45.63195731 7.97511809 -39 2 C-28.02491057 -5.643992 -11.64561859 -7.33023708 0 0 Z " fill="#49AD50" transform="translate(52,4)"/>
<path d="M0 0 C2.75 2.5625 2.75 2.5625 5 5 C5.99 5.33 6.98 5.66 8 6 C8.33 16.23 8.66 26.46 9 37 C-4.39226269 39.23204378 -14.86408828 39.37293889 -28 37 C-27.95456055 36.06933716 -27.95456055 36.06933716 -27.90820312 35.11987305 C-27.77138831 32.30911782 -27.63568164 29.49831015 -27.5 26.6875 C-27.45230469 25.71103516 -27.40460937 24.73457031 -27.35546875 23.72851562 C-27.31035156 22.79072266 -27.26523437 21.85292969 -27.21875 20.88671875 C-27.17685547 20.02264404 -27.13496094 19.15856934 -27.09179688 18.26831055 C-27.02077599 16.51337696 -27 14.75637008 -27 13 C-27 10.66666667 -27 8.33333333 -27 6 C-25.0625 5.4375 -25.0625 5.4375 -23 5 C-22.67 5.33 -22.34 5.66 -22 6 C-21.979375 5.236875 -21.95875 4.47375 -21.9375 3.6875 C-21 1 -21 1 -17.875 -0.8125 C-11.74395231 -3.01467223 -6.00854273 -2.3366555 0 0 Z " fill="#317E42" transform="translate(43,16)"/>
<path d="M0 0 C2.75 2.5625 2.75 2.5625 5 5 C5.99 5.33 6.98 5.66 8 6 C8 8.31 8 10.62 8 13 C4.34920174 14.61064629 0.9492568 15.44894091 -3 16 C-3 15.67 -3 15.34 -3 15 C-4.58323688 14.972807 -6.16661062 14.95351694 -7.75 14.9375 C-8.63171875 14.92589844 -9.5134375 14.91429688 -10.421875 14.90234375 C-12.95309421 14.90397811 -12.95309421 14.90397811 -15.140625 15.56640625 C-17 16 -17 16 -20 15 C-20 14.34 -20 13.68 -20 13 C-20.78375 13.185625 -21.5675 13.37125 -22.375 13.5625 C-25 14 -25 14 -27 13 C-27 10.69 -27 8.38 -27 6 C-25.0625 5.4375 -25.0625 5.4375 -23 5 C-22.67 5.33 -22.34 5.66 -22 6 C-21.979375 5.236875 -21.95875 4.47375 -21.9375 3.6875 C-21 1 -21 1 -17.875 -0.8125 C-11.74395231 -3.01467223 -6.00854273 -2.3366555 0 0 Z " fill="#307B41" transform="translate(43,16)"/>
<path d="M0 0 C0.99 0.33 1.98 0.66 3 1 C2.67 2.32 2.34 3.64 2 5 C2.99 5 3.98 5 5 5 C4.67 3.35 4.34 1.7 4 0 C6.375 0.3125 6.375 0.3125 9 1 C11.46324069 4.69486103 11.38991688 6.63293092 11 11 C9.5 12.9375 9.5 12.9375 8 14 C6.68 13.34 5.36 12.68 4 12 C4.33 11.01 4.66 10.02 5 9 C5.99 8.67 6.98 8.34 8 8 C8.33 7.34 8.66 6.68 9 6 C7.6696875 6.556875 7.6696875 6.556875 6.3125 7.125 C2.59173995 8.10784228 1.32561865 7.76062164 -2 6 C-0.74458443 8.51083114 0.50063488 8.87125446 3 10 C3 10.66 3 11.32 3 12 C1.35 12.66 -0.3 13.32 -2 14 C-4.48038907 10.2794164 -4.46337203 8.40203429 -4 4 C-2 1.5625 -2 1.5625 0 0 Z " fill="#48AB4F" transform="translate(30,35)"/>
<path d="M0 0 C4.95 0 9.9 0 15 0 C14.01 0.33 13.02 0.66 12 1 C12 1.66 12 2.32 12 3 C10.56163249 2.88541307 9.12429034 2.75790884 7.6875 2.625 C6.88699219 2.55539063 6.08648437 2.48578125 5.26171875 2.4140625 C3 2 3 2 0 0 Z " fill="#399049" transform="translate(27,30)"/>
</svg>
