<?xml version="1.0" encoding="UTF-8"?>
<svg version="1.1" xmlns="http://www.w3.org/2000/svg" width="337" height="342">
<path d="M0 0 C1.0450621 0.00131424 1.0450621 0.00131424 2.11123657 0.00265503 C28.31821729 0.11066264 52.6220641 6.74169552 75.5625 19.375 C76.61695313 19.93960937 77.67140625 20.50421875 78.7578125 21.0859375 C96.03930452 30.69679338 111.75515431 44.54242283 123.5625 60.375 C124.26375 61.28765625 124.965 62.2003125 125.6875 63.140625 C150.39353852 96.84672041 160.0877943 138.56057136 154.0078125 179.77832031 C149.15380127 208.08274106 137.15368548 233.57548449 118.5625 255.375 C118.12325195 255.89400879 117.68400391 256.41301758 117.23144531 256.94775391 C92.08802356 286.35008735 55.18196434 305.86363532 16.5625 309.375 C-0.4542526 310.31077011 -17.78850768 310.35508852 -34.4375 306.375 C-35.14293945 306.20871094 -35.84837891 306.04242188 -36.57519531 305.87109375 C-76.55299158 296.07172471 -109.22323881 270.47622602 -131.4375 236.375 C-132.41396484 234.89386719 -132.41396484 234.89386719 -133.41015625 233.3828125 C-146.31464051 212.62981503 -153.29877714 186.7022612 -154.4375 162.375 C-154.49035156 161.33214844 -154.54320312 160.28929687 -154.59765625 159.21484375 C-155.56981907 121.04688622 -142.22000216 83.34524628 -117.4375 54.375 C-116.98084961 53.83858887 -116.52419922 53.30217773 -116.05371094 52.74951172 C-109.80219687 45.48273755 -103.05266071 39.21968917 -95.4375 33.375 C-94.53773437 32.64796875 -93.63796875 31.9209375 -92.7109375 31.171875 C-74.17148198 16.56503126 -51.61560364 6.74253037 -28.4375 2.375 C-27.04325806 2.11227295 -27.04325806 2.11227295 -25.62084961 1.84423828 C-17.07064672 0.37586947 -8.66414335 -0.02684646 0 0 Z " fill="#E4F2E5" transform="translate(170.4375,8.625)"/>
<path d="M0 0 C0.97682739 0.18175781 0.97682739 0.18175781 1.97338867 0.3671875 C46.01191033 8.47841791 98.28752137 15.42267659 141.89453125 0.98828125 C145 0 145 0 148 0 C148.55571675 3.90971255 149.10682953 7.82004643 149.65405273 11.73095703 C149.93046254 13.699871 150.21030379 15.66830227 150.49023438 17.63671875 C150.66748047 18.90644531 150.84472656 20.17617187 151.02734375 21.484375 C151.18968506 22.63647461 151.35202637 23.78857422 151.51928711 24.97558594 C152.71267462 34.42346139 153.13827843 43.81965239 153.17578125 53.3359375 C153.19894761 55.63933238 153.22306356 57.94271786 153.24804688 60.24609375 C153.28330254 63.82737882 153.31262373 67.40830749 153.32592773 70.98974609 C153.34138223 74.48056089 153.38152754 77.97038463 153.42578125 81.4609375 C153.42291862 83.06417374 153.42291862 83.06417374 153.41999817 84.69979858 C153.52191456 90.89164724 154.15453186 94.14799347 158 99 C157.75 101.875 157.75 101.875 157 104 C156.00226563 104.02578125 155.00453125 104.0515625 153.9765625 104.078125 C143.42559689 104.4578996 133.15688033 105.74181502 122.74072266 107.45214844 C119.49618931 107.98470432 116.24936562 108.49776768 113 109 C111.82381104 109.18457764 110.64762207 109.36915527 109.43579102 109.55932617 C97.69768327 111.22782776 86.03134084 111.43480558 74.1875 111.4375 C72.62483902 111.44159378 72.62483902 111.44159378 71.03060913 111.44577026 C50.84915841 111.45367632 31.14238579 109.6385931 11.38671875 105.4453125 C9.01982585 105.0036991 6.75897271 104.79804632 4.35546875 104.68359375 C3.51435547 104.64169922 2.67324219 104.59980469 1.80664062 104.55664062 C0.94232422 104.51732422 0.07800781 104.47800781 -0.8125 104.4375 C-1.69615234 104.39431641 -2.57980469 104.35113281 -3.49023438 104.30664062 C-5.65999623 104.20108464 -7.8299791 104.10008929 -10 104 C-10.37937765 98.4357944 -10.37937765 98.4357944 -8.51586914 96.29516602 C-6.34483091 93.00801343 -6.55872227 89.83917498 -6.55859375 86.02734375 C-6.54620163 85.24054733 -6.53380951 84.45375092 -6.52104187 83.64311218 C-6.49517141 81.95358186 -6.4754409 80.26394851 -6.46124268 78.57427979 C-6.42120937 74.12831873 -6.32857317 69.68346101 -6.23828125 65.23828125 C-6.22114075 64.35396423 -6.20400024 63.46964722 -6.18634033 62.55853271 C-5.20331216 15.60993648 -5.20331216 15.60993648 0 0 Z " fill="#327C44" transform="translate(95,145)"/>
<path d="M0 0 C1.38417569 0.43404556 2.75777035 0.90276904 4.12109375 1.3984375 C8.99775968 3.06758183 13.87545666 4.12422652 18.9375 5.0625 C20.15276367 5.30323242 20.15276367 5.30323242 21.39257812 5.54882812 C36.16535473 8.34185878 50.87206041 9.33380384 65.88623047 9.26074219 C68.49860826 9.25000572 71.11029879 9.2607253 73.72265625 9.2734375 C88.5423756 9.286572 103.09424056 8.10296983 117.625 5.0625 C118.43066406 4.90587891 119.23632812 4.74925781 120.06640625 4.58789062 C123.9944834 3.78890573 127.61858275 2.81871546 131.3359375 1.30859375 C134.98004225 0.00712777 135.6091231 -0.19828306 139 1 C141.25 2.5 141.25 2.5 143 5 C143.75017844 9.97679357 143.27232711 13.55375364 141 18 C140.61263803 23.33824805 140.61263803 23.33824805 143 28 C143.125 31.1875 143.125 31.1875 143 34 C137.44075153 37.27632685 131.6602311 38.32804011 125.375 39.5625 C124.35792969 39.77068359 123.34085938 39.97886719 122.29296875 40.19335938 C105.50957859 43.58619934 89.23715622 45.23660701 72.125 45.25 C71.34165283 45.25067474 70.55830566 45.25134949 69.7512207 45.25204468 C10.57127792 45.17197065 10.57127792 45.17197065 -12 34 C-12.4963661 27.67133227 -12.16397803 24.96990926 -8 20 C-8.18157383 16.91324488 -8.62182182 14.75635635 -10 12 C-10.44810544 5.05436573 -10.44810544 5.05436573 -8.9375 1.5 C-5.88844235 -0.86056076 -3.782146 -0.42701648 0 0 Z " fill="#327C44" transform="translate(103,106)"/>
<path d="M0 0 C4.26251375 1.48384625 8.23616402 1.87172856 12.7109375 2.2265625 C23.25617094 3.13319604 29.74499266 6.34983811 37.453125 13.60546875 C39.7752624 15.42374615 41.87073832 16.26058652 44.6484375 17.2265625 C49.79235945 19.03646097 52.46235929 21.79670948 55.5234375 26.2265625 C46.40299331 30.10718346 37.24360738 31.70506034 27.5234375 33.2265625 C26.49605469 33.40703125 25.46867187 33.5875 24.41015625 33.7734375 C0.20782522 37.57245022 -26.44318402 36.28636758 -50.4765625 32.2265625 C-51.45882812 32.06075684 -52.44109375 31.89495117 -53.453125 31.72412109 C-71.15555708 28.66490511 -71.15555708 28.66490511 -76.4765625 26.2265625 C-75.11319183 20.6026585 -71.08710323 17.35993969 -66.4765625 14.2265625 C-61.76824356 12.04103909 -56.96785945 10.56668286 -51.9140625 9.4140625 C-47.68426244 7.95285884 -44.69364901 5.60606864 -41.10546875 2.9765625 C-28.33991299 -5.52116259 -13.70893031 -6.05900871 0 0 Z " fill="#337C45" transform="translate(180.4765625,77.7734375)"/>
<path d="M0 0 C8.21074672 5.9901441 14.88336347 14.21820669 16.52734375 24.45703125 C17.45593972 37.77705539 15.12417851 47.94740075 6.52734375 58.45703125 C3.07363296 61.44402436 3.07363296 61.44402436 -0.09765625 61.51953125 C-4.20309948 60.2270769 -7.43123982 58.17552921 -11.05859375 55.890625 C-13.76663134 54.28245381 -16.42895241 53.25800594 -19.47265625 52.45703125 C-20.08017795 43.61421544 -20.08017795 43.61421544 -18.16015625 39.95703125 C-15.28189967 38.35056246 -13.33671988 38.08081329 -10.09765625 37.64453125 C-4.90049813 36.87329522 -2.64985361 35.4467642 0.50390625 31.30859375 C1.57713644 29.36694829 2.09740633 27.62582669 2.52734375 25.45703125 C-5.30211961 25.57664164 -5.30211961 25.57664164 -12.53515625 28.14453125 C-14.71426809 30.74540667 -16.04195492 33.39124269 -17.47265625 36.45703125 C-18.46265625 36.95203125 -18.46265625 36.95203125 -19.47265625 37.45703125 C-19.58149221 35.08077948 -19.66032321 32.70959149 -19.72265625 30.33203125 C-19.75617188 29.666875 -19.7896875 29.00171875 -19.82421875 28.31640625 C-19.92597629 23.12677158 -18.50776489 20.55089871 -15.47265625 16.45703125 C-14.58314978 10.45286256 -16.53281709 6.5098798 -19.47265625 1.45703125 C-20.13265625 1.45703125 -20.79265625 1.45703125 -21.47265625 1.45703125 C-24.73908906 6.25460445 -25.91654938 9.54520005 -25.90625 15.34375 C-25.62691697 17.5652733 -25.62691697 17.5652733 -23.95703125 19.2421875 C-21.81604939 22.43675779 -22.14872792 25.5059754 -22.28515625 29.20703125 C-22.30545898 30.25310547 -22.30545898 30.25310547 -22.32617188 31.3203125 C-22.36136175 33.03288666 -22.4151647 34.74506066 -22.47265625 36.45703125 C-24.47265625 35.45703125 -24.47265625 35.45703125 -25.84765625 32.58203125 C-27.75061442 28.92249631 -29.40737353 27.26839232 -33.22265625 25.76953125 C-36.65009083 25.29349867 -40.01381928 25.39938397 -43.47265625 25.45703125 C-42.86627315 28.54345312 -41.8875533 30.61054004 -40.03515625 33.14453125 C-39.60332031 33.74652344 -39.17148438 34.34851563 -38.7265625 34.96875 C-37.52263773 36.59698572 -37.52263773 36.59698572 -35.47265625 37.45703125 C-32.94358009 37.65224296 -30.41704833 37.77457562 -27.8828125 37.8828125 C-25.47265625 38.45703125 -25.47265625 38.45703125 -23.66796875 40.109375 C-22.12631116 43.13727112 -22.174925 45.32660613 -22.28515625 48.70703125 C-22.32576172 50.32351562 -22.32576172 50.32351562 -22.3671875 51.97265625 C-22.40199219 52.7925 -22.43679687 53.61234375 -22.47265625 54.45703125 C-23.44203125 54.64265625 -24.41140625 54.82828125 -25.41015625 55.01953125 C-29.91719686 56.24705857 -32.91637692 59.04214069 -36.359375 62.09375 C-38.47265625 63.45703125 -38.47265625 63.45703125 -40.53125 63.31640625 C-47.79668479 60.10031842 -52.16698616 53.42657098 -55.47265625 46.45703125 C-57.19859552 41.46120024 -57.82946667 36.8385127 -57.78515625 31.58203125 C-57.7795166 30.87949219 -57.77387695 30.17695313 -57.76806641 29.453125 C-57.52132041 18.87969253 -53.88261773 12.04960746 -46.62109375 4.54296875 C-33.80009858 -7.46075183 -14.98285171 -9.34948882 0 0 Z " fill="#E1F2E3" transform="translate(189.47265625,170.54296875)"/>
<path d="M0 0 C3.43284952 1.14428317 3.6368219 1.54740897 5.1875 4.625 C7.02158307 8.59058502 7.65221395 11.59755581 7 16 C6.34 16.845625 5.68 17.69125 5 18.5625 C1.81296249 24.04022073 2.69448375 29.80480943 3 36 C3.31453125 35.45730469 3.6290625 34.91460937 3.953125 34.35546875 C4.38109375 33.64003906 4.8090625 32.92460937 5.25 32.1875 C5.66765625 31.47980469 6.0853125 30.77210938 6.515625 30.04296875 C8.19706253 27.72877972 9.50129284 26.40772235 12 25 C15.015625 24.70703125 15.015625 24.70703125 18.25 24.8125 C19.86648437 24.85310547 19.86648437 24.85310547 21.515625 24.89453125 C22.33546875 24.92933594 23.1553125 24.96414062 24 25 C23.76965084 29.83733243 22.46901577 32.5226373 19.01953125 35.75390625 C15.73245114 37.78210462 12.28087734 38.08704592 8.48828125 38.48046875 C5.61527613 39.08032696 4.6468256 39.58608626 3 42 C2.5339166 44.37113194 2.5339166 44.37113194 2.5 46.9375 C2.35451157 50.95661792 1.81707534 53.05716237 -1 56 C-3.15625 57.30078125 -3.15625 57.30078125 -5.5 58.3125 C-6.2734375 58.65925781 -7.046875 59.00601563 -7.84375 59.36328125 C-10 60 -10 60 -13 59 C-7.79038462 54.03846154 -7.79038462 54.03846154 -3.7890625 53.84375 C-2.86867187 53.8953125 -1.94828125 53.946875 -1 54 C-1.1141866 52.06183265 -1.24173423 50.12444901 -1.375 48.1875 C-1.44460937 47.10855469 -1.51421875 46.02960938 -1.5859375 44.91796875 C-1.81195733 41.81373814 -1.81195733 41.81373814 -4 39 C-6.26252298 38.56638271 -6.26252298 38.56638271 -8.8125 38.5625 C-13.43558911 38.21659981 -15.76460462 37.52087144 -19 34 C-23.08801956 28.83618582 -23.08801956 28.83618582 -22.75 25.625 C-22.5025 25.08875 -22.255 24.5525 -22 24 C-16.15698676 23.69247299 -12.25212249 24.07093169 -7 27 C-4.45144681 29.68268757 -3.16903157 31.49290529 -2 35 C-1.91880497 32.75059705 -1.86072181 30.50035129 -1.8125 28.25 C-1.77769531 26.99703125 -1.74289063 25.7440625 -1.70703125 24.453125 C-2.02281989 20.73102961 -2.6827889 19.76397417 -5 17 C-6.15561422 11.87677698 -5.25575001 7.84513424 -2.5 3.4375 C-1.6861422 2.27775263 -0.85939366 1.12641955 0 0 Z " fill="#327B43" transform="translate(168,171)"/>
<path d="M0 0 C1.32860925 0.35169068 2.66158328 0.68770276 4 1 C4.12375 2.051875 4.2475 3.10375 4.375 4.1875 C4.82138653 7.85417259 4.82138653 7.85417259 6.0625 10.5 C7.27740263 13.73974034 7.1344782 16.57080601 7 20 C11.455 20.99 11.455 20.99 16 22 C16 22.33 16 22.66 16 23 C10.04734161 23.13637247 4.44118522 22.66410262 -1.4375 21.75 C-2.29843262 21.61867676 -3.15936523 21.48735352 -4.04638672 21.35205078 C-24.92446936 18.03776532 -24.92446936 18.03776532 -31 15 C-29.63693423 9.37735371 -25.61100975 6.13102436 -21 3 C-7.01157742 -3.50578871 -7.01157742 -3.50578871 0 0 Z " fill="#377D47" transform="translate(135,89)"/>
<path d="M0 0 C0.99 0.33 1.98 0.66 3 1 C2.34 1.66 1.68 2.32 1 3 C0.75746187 5.21072977 0.75746187 5.21072977 0.875 7.625 C0.89304687 8.44226563 0.91109375 9.25953125 0.9296875 10.1015625 C0.95289062 10.72804687 0.97609375 11.35453125 1 12 C38.07067232 22.32347837 80.81604774 26.33991641 119 20 C120.00643555 19.83918945 121.01287109 19.67837891 122.04980469 19.51269531 C129.04230559 18.39316105 136.02441387 17.2203279 143 16 C143 17.32 143 18.64 143 20 C134.21175883 22.48006113 125.58600966 23.8577742 116.5 24.6875 C115.82036194 24.75003967 115.14072388 24.81257935 114.44049072 24.87701416 C78.19700933 28.1296745 39.03125055 27.60838677 4 17 C3.67 17.99 3.34 18.98 3 20 C3 19.01 3 18.02 3 17 C0.525 16.01 0.525 16.01 -2 15 C-2.05429959 13.25034642 -2.09292823 11.50020213 -2.125 9.75 C-2.15980469 8.28820312 -2.15980469 8.28820312 -2.1953125 6.796875 C-1.99862781 3.9803502 -1.44568916 2.39050964 0 0 Z " fill="#D4F0D8" transform="translate(91,128)"/>
<path d="M0 0 C1.65 0 3.3 0 5 0 C4.67 0.99 4.34 1.98 4 3 C4.99 3.495 4.99 3.495 6 4 C6.33 4.99 6.66 5.98 7 7 C7.763125 7.0825 8.52625 7.165 9.3125 7.25 C12.52373261 8.14615794 13.29374499 9.21611025 15 12 C14.34 12.33 13.68 12.66 13 13 C13 12.34 13 11.68 13 11 C7.95385749 9.73072489 4.50559452 10.5122414 -0.25 12.25 C-6.19700618 14.26210298 -12.05217734 15.74129841 -18.25 16.75 C-18.94512695 16.86504883 -19.64025391 16.98009766 -20.35644531 17.09863281 C-33.12995904 19.06790763 -45.91803951 19.24008332 -58.8125 19.25 C-59.72285004 19.25100708 -60.63320007 19.25201416 -61.57113647 19.25305176 C-75.59335715 19.24257419 -89.19036666 18.60150498 -103 16 C-103.92119629 15.83419434 -104.84239258 15.66838867 -105.79150391 15.49755859 C-121.99630436 12.56055985 -121.99630436 12.56055985 -128 10 C-129.9924325 9.62406934 -131.9918674 9.28020455 -134 9 C-131.82575883 6.49962266 -130.26954202 5.56371414 -127 5 C-127 5.66 -127 6.32 -127 7 C-99.40288279 12.65982747 -73.13147459 15.67541117 -45 15 C-44.10684082 14.97921387 -43.21368164 14.95842773 -42.29345703 14.93701172 C-28.92160491 14.55202557 -7.3195859 13.5463906 4 6 C3.01 5.071875 3.01 5.071875 2 4.125 C0 2 0 2 0 0 Z " fill="#D2F0D6" transform="translate(231,97)"/>
<path d="M0 0 C1.32860925 0.35169068 2.66158328 0.68770276 4 1 C4 2.32 4 3.64 4 5 C2.68 5 1.36 5 0 5 C-0.33 5.99 -0.66 6.98 -1 8 C-1.65129797 9.34090759 -2.31513275 10.67592331 -3 12 C-4.65 12 -6.3 12 -8 12 C-8.33 11.01 -8.66 10.02 -9 9 C-9.66 9 -10.32 9 -11 9 C-11.33 10.32 -11.66 11.64 -12 13 C-13.65 12.67 -15.3 12.34 -17 12 C-17 9.69 -17 7.38 -17 5 C-18.32 4.67 -19.64 4.34 -21 4 C-17.81790013 1.27029505 -14.99290203 0.23495514 -10.9375 -0.75 C-9.89464844 -1.01296875 -8.85179688 -1.2759375 -7.77734375 -1.546875 C-4.55063612 -2.07331394 -2.88401615 -1.44200808 0 0 Z M-9 12 C-8.34 12.33 -7.68 12.66 -7 13 C-7.33 14.65 -7.66 16.3 -8 18 C-8.99 17.67 -9.98 17.34 -11 17 C-11 15.68 -11 14.36 -11 13 C-10.34 12.67 -9.68 12.34 -9 12 Z " fill="#458754" transform="translate(135,89)"/>
<path d="M0 0 C-0.23332983 4.89992645 -1.59241325 7.55733544 -5.11328125 10.796875 C-8.42158057 12.90651515 -12.12487943 13.53882629 -16 13 C-17.765625 11.64453125 -17.765625 11.64453125 -19 10 C-19.09576979 6.36074814 -18.00345743 5.00420498 -15.6875 2.1875 C-11.16767997 -1.36616686 -5.43176884 -0.39551715 0 0 Z " fill="#337B44" transform="translate(192,196)"/>
<path d="M0 0 C0.33 0 0.66 0 1 0 C1.02685095 2.47923801 1.04676547 4.9581884 1.0625 7.4375 C1.07087891 8.14455078 1.07925781 8.85160156 1.08789062 9.58007812 C1.09653588 11.38693559 1.05220011 13.19387603 1 15 C0.67 15.33 0.34 15.66 0 16 C0.99 16.33 1.98 16.66 3 17 C3.66 15.68 4.32 14.36 5 13 C5.66 13 6.32 13 7 13 C7 13.66 7 14.32 7 15 C7.66 15.33 8.32 15.66 9 16 C7.7934375 16.680625 7.7934375 16.680625 6.5625 17.375 C3.25073302 20.76754178 3.40595159 22.96957537 3.3359375 27.5625 C2.92118845 30.57184195 2.09364412 31.81795758 0 34 C-2.15625 35.30078125 -2.15625 35.30078125 -4.5 36.3125 C-5.2734375 36.65925781 -6.046875 37.00601563 -6.84375 37.36328125 C-9 38 -9 38 -12 37 C-6.79038462 32.03846154 -6.79038462 32.03846154 -2.7890625 31.84375 C-1.86867187 31.8953125 -0.94828125 31.946875 0 32 C-0.1141866 30.06183265 -0.24173423 28.12444901 -0.375 26.1875 C-0.44460937 25.10855469 -0.51421875 24.02960938 -0.5859375 22.91796875 C-0.81195733 19.81373814 -0.81195733 19.81373814 -3 17 C-5.42521494 16.41810734 -5.42521494 16.41810734 -8.125 16.3125 C-9.03507813 16.24675781 -9.94515625 16.18101562 -10.8828125 16.11328125 C-11.58148438 16.07589844 -12.28015625 16.03851563 -13 16 C-13 15.67 -13 15.34 -13 15 C-6.25 12.875 -6.25 12.875 -4 14 C-3.67 13.01 -3.34 12.02 -3 11 C-3.66 11 -4.32 11 -5 11 C-5.33 9.35 -5.66 7.7 -6 6 C-3.47411298 8.36292656 -2.11179163 9.66462511 -1 13 C-0.67 8.71 -0.34 4.42 0 0 Z " fill="#447E51" transform="translate(167,193)"/>
<path d="M0 0 C1.299375 0.433125 1.299375 0.433125 2.625 0.875 C2.74875 1.98875 2.8725 3.1025 3 4.25 C3.2715813 7.90603677 3.2715813 7.90603677 5.625 9.875 C4.305 10.205 2.985 10.535 1.625 10.875 C1.955 11.535 2.285 12.195 2.625 12.875 C-6.78502278 13.2440205 -6.78502278 13.2440205 -11.375 10.875 C-9.70083142 5.18282684 -6.30388007 -0.23347704 0 0 Z " fill="#377D47" transform="translate(115.375,93.125)"/>
<path d="M0 0 C3.43284952 1.14428317 3.6368219 1.54740897 5.1875 4.625 C7.09792915 8.64924999 7.36706702 11.5951958 7 16 C6.67 15.34 6.34 14.68 6 14 C5.4225 14.2475 4.845 14.495 4.25 14.75 C3.13625 14.87375 3.13625 14.87375 2 15 C-0.125 13.125 -0.125 13.125 -2 11 C-2.66 10.67 -3.32 10.34 -4 10 C-3.67 12.97 -3.34 15.94 -3 19 C-5.33760576 16.66239424 -5.34295127 16.06741017 -5.4375 12.875 C-5.35990235 7.55524992 -3.15788963 4.13909105 0 0 Z " fill="#3D804D" transform="translate(168,171)"/>
<path d="M0 0 C0.99 0.33 1.98 0.66 3 1 C2.34 1.66 1.68 2.32 1 3 C0.75746187 5.21072977 0.75746187 5.21072977 0.875 7.625 C0.89304687 8.44226563 0.91109375 9.25953125 0.9296875 10.1015625 C0.95289062 10.72804687 0.97609375 11.35453125 1 12 C9.30900422 14.11093621 17.6405395 16.09889689 26 18 C24 20 24 20 20.0625 20.3125 C14.45494333 20.21203889 9.31872007 18.67017752 4 17 C3.67 17.99 3.34 18.98 3 20 C3 19.01 3 18.02 3 17 C0.525 16.01 0.525 16.01 -2 15 C-2.05429959 13.25034642 -2.09292823 11.50020213 -2.125 9.75 C-2.15980469 8.28820312 -2.15980469 8.28820312 -2.1953125 6.796875 C-1.99862781 3.9803502 -1.44568916 2.39050964 0 0 Z " fill="#D3F0D6" transform="translate(91,128)"/>
<path d="M0 0 C0 0.99 0 1.98 0 3 C-8.66891797 5.52446512 -16.98741574 6.61336547 -26 7 C-26 6.34 -26 5.68 -26 5 C-27.32 4.67 -28.64 4.34 -30 4 C-26.05050592 3.26122658 -22.09953116 2.53104212 -18.14697266 1.80883789 C-16.80213463 1.56185665 -15.45772734 1.312518 -14.11376953 1.06079102 C-12.18376241 0.69971588 -10.25205437 0.34776983 -8.3203125 -0.00390625 C-7.15773926 -0.21861572 -5.99516602 -0.4333252 -4.79736328 -0.65454102 C-2 -1 -2 -1 0 0 Z " fill="#C0E3C4" transform="translate(234,145)"/>
<path d="M0 0 C0.33 0.66 0.66 1.32 1 2 C3.61203027 2.75530378 3.61203027 2.75530378 6.78515625 3.2890625 C7.95498047 3.50820312 9.12480469 3.72734375 10.33007812 3.953125 C11.56177734 4.17484375 12.79347656 4.3965625 14.0625 4.625 C15.29806641 4.85445313 16.53363281 5.08390625 17.80664062 5.3203125 C20.86974692 5.88799243 23.93412465 6.4475047 27 7 C20.84897429 10.15671318 16.82862023 10.03052019 10.1875 8.1875 C9.51396484 8.00896484 8.84042969 7.83042969 8.14648438 7.64648438 C6.78983092 7.28687384 5.43418241 6.92344968 4.07958984 6.55615234 C0.7304642 5.66048338 -2.63475859 4.8328313 -6 4 C-3.94766315 1.7522025 -2.99332739 0.9977758 0 0 Z " fill="#C9E8CE" transform="translate(103,102)"/>
<path d="M0 0 C1.47057839 0.00031709 2.94118001 0.01164091 4.41162109 0.03173828 C5.18565277 0.03456818 5.95968445 0.03739807 6.75717163 0.04031372 C9.23329016 0.05152325 11.70904909 0.07662875 14.18505859 0.10205078 C15.86213671 0.1120796 17.53922049 0.12120562 19.21630859 0.12939453 C23.33103082 0.15146504 27.44548371 0.18599977 31.56005859 0.22705078 C27.68334239 2.81152825 25.99202266 3.35437221 21.39599609 3.35986328 C20.35572266 3.36115234 19.31544922 3.36244141 18.24365234 3.36376953 C16.60589844 3.35796875 16.60589844 3.35796875 14.93505859 3.35205078 C13.33210938 3.35785156 13.33210938 3.35785156 11.69677734 3.36376953 C5.8889219 3.3566258 0.30269342 3.10304592 -5.43994141 2.22705078 C-3.43994141 0.22705078 -3.43994141 0.22705078 0 0 Z " fill="#D7F1D9" transform="translate(165.43994140625,112.77294921875)"/>
<path d="M0 0 C1.984375 1.515625 1.984375 1.515625 4 4 C4.2911521 6.73682971 4.38322418 9.03940039 4.25 11.75 C4.23195312 12.44738281 4.21390625 13.14476562 4.1953125 13.86328125 C4.14838554 15.57611539 4.07664605 17.28823824 4 19 C2 18 2 18 0.625 15.125 C-1.68089848 10.69057985 -4.56806482 9.05768419 -9 7 C-6.36 7 -3.72 7 -1 7 C-1.20625 6.401875 -1.4125 5.80375 -1.625 5.1875 C-2 3 -2 3 0 0 Z " fill="#D8F2DC" transform="translate(163,188)"/>
<path d="M0 0 C8.05364285 -0.33608711 14.49783264 -0.0517291 22 3 C18.34811918 4.07174763 15.73567172 3.76411467 12 3 C12 6.96 12 10.92 12 15 C9.80450318 11.70675477 7.82188812 8.51812879 6 5 C6.33 4.01 6.66 3.02 7 2 C4.69 1.67 2.38 1.34 0 1 C0 0.67 0 0.34 0 0 Z " fill="#D3F0D8" transform="translate(163,165)"/>
<path d="M0 0 C5.21979128 -0.1799928 9.07262981 0.02905192 14 2 C13.67 2.66 13.34 3.32 13 4 C12.34 4 11.68 4 11 4 C11 3.34 11 2.68 11 2 C8.69 2.33 6.38 2.66 4 3 C4.10613836 5.45224694 4.10613836 5.45224694 5 8 C7.47636012 9.37466625 7.47636012 9.37466625 10 10 C9.01 11.485 9.01 11.485 8 13 C4.06455377 11.68818459 2.25061837 9.04041273 -0.14453125 5.8515625 C-1.22877115 3.50485148 -0.85573613 2.38346137 0 0 Z " fill="#50885F" transform="translate(146,195)"/>
<path d="M0 0 C0.33 0 0.66 0 1 0 C1.02685095 2.47923801 1.04676547 4.9581884 1.0625 7.4375 C1.07087891 8.14455078 1.07925781 8.85160156 1.08789062 9.58007812 C1.09653588 11.38693559 1.05220011 13.19387603 1 15 C0.67 15.33 0.34 15.66 0 16 C0.33 16.99 0.66 17.98 1 19 C0.34 19.33 -0.32 19.66 -1 20 C-1.66 19.01 -2.32 18.02 -3 17 C-5.42521494 16.41810734 -5.42521494 16.41810734 -8.125 16.3125 C-9.03507813 16.24675781 -9.94515625 16.18101562 -10.8828125 16.11328125 C-11.58148438 16.07589844 -12.28015625 16.03851563 -13 16 C-13 15.67 -13 15.34 -13 15 C-6.25 12.875 -6.25 12.875 -4 14 C-3.67 13.01 -3.34 12.02 -3 11 C-3.66 11 -4.32 11 -5 11 C-5.33 9.35 -5.66 7.7 -6 6 C-3.47411298 8.36292656 -2.11179163 9.66462511 -1 13 C-0.67 8.71 -0.34 4.42 0 0 Z " fill="#4E845A" transform="translate(167,193)"/>
<path d="M0 0 C-3.56741255 2.48889248 -6.89041233 4.54955729 -11 6 C-11.33 8.64 -11.66 11.28 -12 14 C-12.66 14 -13.32 14 -14 14 C-14.61485909 5.05038429 -14.61485909 5.05038429 -12.5 1.4375 C-8.75013952 -0.71866978 -4.06204957 -2.03102479 0 0 Z " fill="#C5E6CC" transform="translate(184,209)"/>
<path d="M0 0 C0.99 0.33 1.98 0.66 3 1 C2.34 3.64 1.68 6.28 1 9 C7.27 9 13.54 9 20 9 C20 9.33 20 9.66 20 10 C16.73117686 10.28381864 13.46059609 10.52117491 10.1875 10.75 C8.7943457 10.87181641 8.7943457 10.87181641 7.37304688 10.99609375 C6.0340332 11.08310547 6.0340332 11.08310547 4.66796875 11.171875 C3.84578857 11.2347168 3.0236084 11.29755859 2.17651367 11.36230469 C0 11 0 11 -1.83862305 9.18847656 C-3 7 -3 7 -2.25 3.8125 C-1 1 -1 1 0 0 Z " fill="#C1E4C8" transform="translate(84,240)"/>
<path d="M0 0 C0.33 0 0.66 0 1 0 C2.65944275 12.40137127 3.2496045 24.49204127 3 37 C2.67 37 2.34 37 2 37 C0.34055725 24.59862873 -0.2496045 12.50795873 0 0 Z " fill="#51895F" transform="translate(245,168)"/>
<path d="M0 0 C1.07894531 0.03480469 2.15789062 0.06960937 3.26953125 0.10546875 C4.35621094 0.13253906 5.44289062 0.15960938 6.5625 0.1875 C7.80966797 0.23970703 7.80966797 0.23970703 9.08203125 0.29296875 C9.00506972 3.52535289 8.7076447 5.6252467 6.45703125 8.02734375 C4.70433054 9.51148548 2.93123763 10.93141209 1.08203125 12.29296875 C1.39140625 11.69484375 1.70078125 11.09671875 2.01953125 10.48046875 C3.64560864 7.13266235 4.08203125 5.08347935 4.08203125 1.29296875 C0.78203125 1.95296875 -2.51796875 2.61296875 -5.91796875 3.29296875 C-2.91796875 0.29296875 -2.91796875 0.29296875 0 0 Z " fill="#3E7B4C" transform="translate(182.91796875,195.70703125)"/>
<path d="M0 0 C0.66 0.33 1.32 0.66 2 1 C1.78561279 1.527146 1.57122559 2.05429199 1.3503418 2.59741211 C-0.94379809 8.73181526 -1.37368875 14.05544179 -1.1875 20.5625 C-1.17396484 21.47580078 -1.16042969 22.38910156 -1.14648438 23.33007812 C-1.11155315 25.55403259 -1.06251586 27.77667952 -1 30 C-1.33 29.01 -1.66 28.02 -2 27 C-2.66 27 -3.32 27 -4 27 C-3.91906185 23.24912023 -3.80622313 19.49985902 -3.6875 15.75 C-3.66494141 14.68652344 -3.64238281 13.62304688 -3.61914062 12.52734375 C-3.58369141 11.50253906 -3.54824219 10.47773438 -3.51171875 9.421875 C-3.48553467 8.47924805 -3.45935059 7.53662109 -3.43237305 6.56542969 C-2.93738106 3.6284586 -1.95154016 2.20826197 0 0 Z " fill="#4F895F" transform="translate(134,184)"/>
<path d="M0 0 C0.66 1.32 1.32 2.64 2 4 C1.195625 4.86625 0.39125 5.7325 -0.4375 6.625 C-2.96924136 9.62876093 -3.71657376 12.03203262 -4 16 C-1.98177083 16.16276042 0.03645833 16.32552083 2.0546875 16.48828125 C4 17 4 17 6 20 C1.88425629 19.5251065 -1.36383344 18.9789756 -5 17 C-5.63229462 8.93824363 -5.63229462 8.93824363 -3.0625 5.125 C-2.0415625 4.073125 -2.0415625 4.073125 -1 3 C-0.67 2.01 -0.34 1.02 0 0 Z " fill="#4C8359" transform="translate(96,123)"/>
<path d="M0 0 C-8.30314733 4.65786314 -18.81825272 4.86747402 -28 3 C-28 2.67 -28 2.34 -28 2 C-26.77023438 1.86722656 -25.54046875 1.73445313 -24.2734375 1.59765625 C-22.64061531 1.41935957 -21.00780334 1.2409692 -19.375 1.0625 C-18.56675781 0.97548828 -17.75851563 0.88847656 -16.92578125 0.79882812 C-13.44679338 0.41698799 -10.01292973 0.00223332 -6.5625 -0.59375 C-3.98745654 -1.0019886 -2.44084331 -0.8449073 0 0 Z " fill="#4C855B" transform="translate(220,113)"/>
<path d="M0 0 C1.05445312 0.20109375 2.10890625 0.4021875 3.1953125 0.609375 C4.22398438 0.82078125 5.25265625 1.0321875 6.3125 1.25 C7.19679688 1.42015625 8.08109375 1.5903125 8.9921875 1.765625 C12.75149883 2.52981288 15.05866344 3.08077563 18.3125 5.25 C-0.50754556 3.32289294 -0.50754556 3.32289294 -9.6875 1.25 C-6.17835239 -0.98385168 -4.02127165 -0.77797151 0 0 Z " fill="#4F855C" transform="translate(113.6875,248.75)"/>
<path d="M0 0 C2.63886669 3.18483911 5.14494105 6.2898821 7 10 C6.67 10.99 6.34 11.98 6 13 C5.55269531 12.46890625 5.10539063 11.9378125 4.64453125 11.390625 C1.33285362 7.52111681 -1.85557544 4.01412695 -6 1 C-4.02 0.67 -2.04 0.34 0 0 Z " fill="#3E7A4C" transform="translate(194,169)"/>
<path d="M0 0 C1.98 0.495 1.98 0.495 4 1 C4.33 2.65 4.66 4.3 5 6 C9.455 6.99 9.455 6.99 14 8 C14 8.33 14 8.66 14 9 C8.84828377 9.09038099 4.08086796 8.84681133 -1 8 C-0.34 7.67 0.32 7.34 1 7 C0.67 4.69 0.34 2.38 0 0 Z " fill="#70A97D" transform="translate(137,103)"/>
<path d="M0 0 C0.33 0.66 0.66 1.32 1 2 C2.88764903 2.68472665 2.88764903 2.68472665 5.0625 3.125 C5.79597656 3.29257813 6.52945313 3.46015625 7.28515625 3.6328125 C7.85105469 3.75398438 8.41695312 3.87515625 9 4 C9 4.66 9 5.32 9 6 C3.5814234 6.22577402 -0.77487721 5.46670113 -6 4 C-3.94766315 1.7522025 -2.99332739 0.9977758 0 0 Z " fill="#D0ECD2" transform="translate(103,102)"/>
<path d="M0 0 C1.98 0.495 1.98 0.495 4 1 C4 2.32 4 3.64 4 5 C2.35 5 0.7 5 -1 5 C-0.67 3.35 -0.34 1.7 0 0 Z M-2 5 C-1.34 5.33 -0.68 5.66 0 6 C-0.33 7.65 -0.66 9.3 -1 11 C-1.99 10.67 -2.98 10.34 -4 10 C-4 8.68 -4 7.36 -4 6 C-3.34 5.67 -2.68 5.34 -2 5 Z " fill="#83B98F" transform="translate(128,96)"/>
<path d="M0 0 C1.38294718 0.01329757 2.76582404 0.03715018 4.1484375 0.0703125 C4.85484375 0.07933594 5.56125 0.08835937 6.2890625 0.09765625 C8.03399848 0.12123647 9.77876045 0.15710789 11.5234375 0.1953125 C11.1934375 1.1853125 10.8634375 2.1753125 10.5234375 3.1953125 C5.2434375 2.8653125 -0.0365625 2.5353125 -5.4765625 2.1953125 C-3.4765625 0.1953125 -3.4765625 0.1953125 0 0 Z " fill="#DCF7E2" transform="translate(165.4765625,112.8046875)"/>
<path d="M0 0 C0.89203125 0.00902344 1.7840625 0.01804687 2.703125 0.02734375 C3.37859375 0.03894531 4.0540625 0.05054687 4.75 0.0625 C4.75 0.3925 4.75 0.7225 4.75 1.0625 C7.72 1.5575 7.72 1.5575 10.75 2.0625 C10.75 2.3925 10.75 2.7225 10.75 3.0625 C7.97890693 3.11642397 5.20886182 3.15613455 2.4375 3.1875 C1.65181641 3.20425781 0.86613281 3.22101563 0.05664062 3.23828125 C-0.70068359 3.24472656 -1.45800781 3.25117187 -2.23828125 3.2578125 C-3.28302612 3.27352295 -3.28302612 3.27352295 -4.34887695 3.28955078 C-6.25 3.0625 -6.25 3.0625 -9.25 1.0625 C-6.09493858 0.12630187 -3.28413498 -0.0432123 0 0 Z " fill="#C8E8CE" transform="translate(157.25,112.9375)"/>
<path d="M0 0 C0 0.99 0 1.98 0 3 C-3.3 3.66 -6.6 4.32 -10 5 C-10 4.01 -10 3.02 -10 2 C-10.99 1.67 -11.98 1.34 -13 1 C-11.20994059 0.63779734 -9.41787943 0.28547531 -7.625 -0.0625 C-6.12839844 -0.35833984 -6.12839844 -0.35833984 -4.6015625 -0.66015625 C-2 -1 -2 -1 0 0 Z " fill="#BEE1C3" transform="translate(234,145)"/>
<path d="M0 0 C0.99 0.33 1.98 0.66 3 1 C2.67 2.32 2.34 3.64 2 5 C1.34 5 0.68 5 0 5 C-0.66 6.32 -1.32 7.64 -2 9 C-4.31 8.67 -6.62 8.34 -9 8 C-6.36095629 6.58622659 -3.92879371 5.62759865 -1 5 C-0.67 3.35 -0.34 1.7 0 0 Z " fill="#2F7B43" transform="translate(124,97)"/>
<path d="M0 0 C4.42687984 3.92095071 7.90090254 8.41240248 10 14 C9.6328125 16.27734375 9.6328125 16.27734375 9 18 C6.43015167 14.14522751 5.14185734 10.47959418 4 6 C3.34 6 2.68 6 2 6 C1.34 4.02 0.68 2.04 0 0 Z " fill="#C6E9CC" transform="translate(195,176)"/>
<path d="M0 0 C1.32860925 0.35169068 2.66158328 0.68770276 4 1 C4 2.32 4 3.64 4 5 C2.35 5 0.7 5 -1 5 C-1.33 4.01 -1.66 3.02 -2 2 C-2.66 2 -3.32 2 -4 2 C-4 1.34 -4 0.68 -4 0 C-5.98 0 -7.96 0 -10 0 C-10 -0.33 -10 -0.66 -10 -1 C-5.92166722 -1.99202689 -3.81355207 -1.90677603 0 0 Z " fill="#71A97F" transform="translate(135,89)"/>
<path d="M0 0 C0.75410156 0.00451172 1.50820312 0.00902344 2.28515625 0.01367188 C4.14847127 0.02546501 6.01174555 0.04340058 7.875 0.0625 C7.875 0.3925 7.875 0.7225 7.875 1.0625 C2.72276142 2.50874241 -1.71959582 3.48645327 -7.125 3.0625 C-8.115 2.4025 -9.105 1.7425 -10.125 1.0625 C-6.93675432 -0.53162284 -3.49603338 -0.03924735 0 0 Z " fill="#CDEED3" transform="translate(148.125,149.9375)"/>
<path d="M0 0 C0.875 2 0.875 2 1 4 C0.34 4.66 -0.32 5.32 -1 6 C-1 4.35 -1 2.7 -1 1 C-4.3 1.66 -7.6 2.32 -11 3 C-9 -1 -9 -1 -6.625 -1.875 C-3.66064951 -2.01615955 -2.36864393 -1.77648295 0 0 Z " fill="#CFF1D7" transform="translate(244,144)"/>
<path d="M0 0 C0.33 0 0.66 0 1 0 C1.309375 0.94875 1.61875 1.8975 1.9375 2.875 C2.87394742 5.86080408 2.87394742 5.86080408 4 8 C4.039992 9.99960012 4.04346799 12.00047242 4 14 C2.35 14.66 0.7 15.32 -1 16 C-1 15.34 -1 14.68 -1 14 C-0.01 14 0.98 14 2 14 C2 12.35 2 10.7 2 9 C1.34 9 0.68 9 0 9 C0 6.03 0 3.06 0 0 Z " fill="#4A8358" transform="translate(242,126)"/>
<path d="M0 0 C0.625 1.8125 0.625 1.8125 1 4 C0.01 5.485 0.01 5.485 -1 7 C0.98 6.67 2.96 6.34 5 6 C5 6.99 5 7.98 5 9 C-1.75 8.125 -1.75 8.125 -4 7 C-2.92598892 4.08482708 -2.22189824 2.22189824 0 0 Z " fill="#4B845A" transform="translate(108,97)"/>
<path d="M0 0 C0.33 0 0.66 0 1 0 C1 2.64 1 5.28 1 8 C2.32 7.67 3.64 7.34 5 7 C2.25 13.875 2.25 13.875 0 15 C0 10.05 0 5.1 0 0 Z " fill="#B1D7B8" transform="translate(170,193)"/>
<path d="M0 0 C0.66 0.66 1.32 1.32 2 2 C1.67 2.66 1.34 3.32 1 4 C0.93003986 5.70702735 0.91559846 7.41668003 0.9375 9.125 C0.95103516 10.49011719 0.95103516 10.49011719 0.96484375 11.8828125 C0.97644531 12.58148438 0.98804687 13.28015625 1 14 C0.34 14 -0.32 14 -1 14 C-1.93385816 11.19842552 -2.16354595 9.34552197 -2.1875 6.4375 C-2.20167969 5.65246094 -2.21585937 4.86742188 -2.23046875 4.05859375 C-2 2 -2 2 0 0 Z " fill="#CBEACF" transform="translate(93,106)"/>
<path d="M0 0 C4.29 0.33 8.58 0.66 13 1 C13 1.33 13 1.66 13 2 C8.15758367 3.33583899 4.06562383 4.25328119 -1 4 C-0.67 2.68 -0.34 1.36 0 0 Z " fill="#BDE1C6" transform="translate(133,148)"/>
<path d="M0 0 C2.24940295 -0.08119503 4.49964871 -0.13927819 6.75 -0.1875 C8.00296875 -0.22230469 9.2559375 -0.25710937 10.546875 -0.29296875 C14 0 14 0 18 3 C14.7 3 11.4 3 8 3 C8 2.67 8 2.34 8 2 C5.36 1.67 2.72 1.34 0 1 C0 0.67 0 0.34 0 0 Z " fill="#C0E2C7" transform="translate(186,112)"/>
<path d="M0 0 C3.63 0.66 7.26 1.32 11 2 C7 3 7 3 4 2 C4 2.66 4 3.32 4 4 C1.36 3.67 -1.28 3.34 -4 3 C-2.68 2.67 -1.36 2.34 0 2 C0 1.34 0 0.68 0 0 Z " fill="#C1E5C8" transform="translate(112,106)"/>
<path d="M0 0 C1.65 0.99 3.3 1.98 5 3 C4.01 3.495 4.01 3.495 3 4 C3.66 5.98 4.32 7.96 5 10 C4.34 10 3.68 10 3 10 C0.4606772 6.58168085 -0.3636198 4.24223102 0 0 Z " fill="#D7F0DB" transform="translate(249,234)"/>
<path d="M0 0 C2.45862401 -0.05383848 4.9160755 -0.09359038 7.375 -0.125 C8.42300781 -0.15013672 8.42300781 -0.15013672 9.4921875 -0.17578125 C11.32897486 -0.19344267 13.16601963 -0.10303261 15 0 C15.66 0.66 16.32 1.32 17 2 C13.22628488 3.3357457 10.14168653 2.72408671 6.25 2.0625 C5.07953125 1.86785156 3.9090625 1.67320312 2.703125 1.47265625 C1.81109375 1.31667969 0.9190625 1.16070312 0 1 C0 0.67 0 0.34 0 0 Z " fill="#437E52" transform="translate(166,164)"/>
<path d="M0 0 C2 1.375 2 1.375 4 3 C4 3.66 4 4.32 4 5 C-0.34464536 4.39174965 -4.67551867 3.73832608 -9 3 C-9 2.67 -9 2.34 -9 2 C-6.94921875 1.77213542 -4.8984375 1.54427083 -2.84765625 1.31640625 C-0.98859771 1.18113386 -0.98859771 1.18113386 0 0 Z " fill="#4C8558" transform="translate(123,104)"/>
<path d="M0 0 C0.66 0 1.32 0 2 0 C1.71125 0.639375 1.4225 1.27875 1.125 1.9375 C-0.3247725 5.88410292 -1.15778062 9.8874607 -2 14 C-2.33 14 -2.66 14 -3 14 C-3.08153933 12.41753293 -3.13943557 10.83383727 -3.1875 9.25 C-3.22230469 8.36828125 -3.25710937 7.4865625 -3.29296875 6.578125 C-2.94589665 3.52389051 -2.11745198 2.19435701 0 0 Z " fill="#CBEACE" transform="translate(165,172)"/>
<path d="M0 0 C0.33 2.97 0.66 5.94 1 9 C0.34 8.01 -0.32 7.02 -1 6 C-2.91907273 3.91405138 -4.59798564 2.60134291 -7 1 C-4.50935112 0.31292445 -2.62113708 0 0 0 Z " fill="#588C64" transform="translate(243,145)"/>
<path d="M0 0 C2.0625 0.4375 2.0625 0.4375 4 1 C4 2.32 4 3.64 4 5 C2.68 5.33 1.36 5.66 0 6 C-0.38218767 4.34385343 -0.71395102 2.67542976 -1 1 C-0.67 0.67 -0.34 0.34 0 0 Z " fill="#2E7B41" transform="translate(114,93)"/>
<path d="M0 0 C6.625 -0.25 6.625 -0.25 10 2 C6.6875 2.6875 6.6875 2.6875 3 3 C1.0625 1.5625 1.0625 1.5625 0 0 Z " fill="#D9F4DB" transform="translate(107,145)"/>
<path d="M0 0 C2.62901288 1.52206009 4.84365964 2.84365964 7 5 C5.02 5.99 5.02 5.99 3 7 C1.68 5.35 0.36 3.7 -1 2 C-0.67 1.34 -0.34 0.68 0 0 Z " fill="#478357" transform="translate(149,201)"/>
<path d="M0 0 C0.93423645 3.01031744 1.04449911 3.86650268 0 7 C-0.99 7.33 -1.98 7.66 -3 8 C-3.66 7.34 -4.32 6.68 -5 6 C-3.35 4.02 -1.7 2.04 0 0 Z " fill="#CFEAD1" transform="translate(191,200)"/>
<path d="M0 0 C6.52307692 -0.36923077 6.52307692 -0.36923077 8.9375 1.5 C9.288125 1.995 9.63875 2.49 10 3 C9.34 3.66 8.68 4.32 8 5 C7.13375 4.319375 7.13375 4.319375 6.25 3.625 C4.2199667 2.15886484 2.26460157 1.05142216 0 0 Z " fill="#C9EBD0" transform="translate(154,195)"/>
<path d="M0 0 C0 0.99 0 1.98 0 3 C-2.64 3 -5.28 3 -8 3 C-6.23110084 -0.53779831 -3.70375662 0 0 0 Z " fill="#DBF5DA" transform="translate(224,147)"/>
<path d="M0 0 C0.99 0.33 1.98 0.66 3 1 C3 3.31 3 5.62 3 8 C1.35 8.33 -0.3 8.66 -2 9 C-1.34 8.34 -0.68 7.68 0 7 C0.16677282 3.41656024 0.16677282 3.41656024 0 0 Z " fill="#D4F2D9" transform="translate(245,133)"/>
<path d="M0 0 C1.485 0.99 1.485 0.99 3 2 C2.01 4.64 1.02 7.28 0 10 C-0.33 10 -0.66 10 -1 10 C-1.125 2.25 -1.125 2.25 0 0 Z " fill="#3F7A4E" transform="translate(94,108)"/>
<path d="M0 0 C0 0.66 0 1.32 0 2 C0.99 2.33 1.98 2.66 3 3 C1.02 3.33 -0.96 3.66 -3 4 C-3 3.34 -3 2.68 -3 2 C-4.32 1.67 -5.64 1.34 -7 1 C-4 0 -4 0 0 0 Z " fill="#C1E1C6" transform="translate(223,108)"/>
<path d="M0 0 C0.33 1.32 0.66 2.64 1 4 C0.01 4.495 0.01 4.495 -1 5 C-2.65 3.68 -4.3 2.36 -6 1 C-4.02 0.67 -2.04 0.34 0 0 Z " fill="#437F53" transform="translate(194,169)"/>
<path d="M0 0 C-3.85756507 2.15305957 -6.55129785 3.39253254 -11 3 C-10 1 -10 1 -7.1875 -0.1875 C-4.14038924 -0.96421451 -2.86250637 -1.10096399 0 0 Z " fill="#C5E8CA" transform="translate(162,167)"/>
<path d="M0 0 C1.65 0 3.3 0 5 0 C4.67 0.66 4.34 1.32 4 2 C4.66 2.66 5.32 3.32 6 4 C3.36 3.67 0.72 3.34 -2 3 C-1.34 2.67 -0.68 2.34 0 2 C0 1.34 0 0.68 0 0 Z " fill="#C0E3C6" transform="translate(104,144)"/>
<path d="M0 0 C1 4 1 4 0 6 C-3.0625 6.625 -3.0625 6.625 -6 7 C-4.02 4.69 -2.04 2.38 0 0 Z " fill="#467F54" transform="translate(198,225)"/>
<path d="M0 0 C0.66 0.99 1.32 1.98 2 3 C1.67 3.33 1.34 3.66 1 4 C0.92820036 5.51928038 0.91607993 7.04167482 0.9375 8.5625 C0.94652344 9.38878906 0.95554688 10.21507812 0.96484375 11.06640625 C0.97644531 11.70449219 0.98804688 12.34257812 1 13 C-1 11 -1 11 -1.23046875 8.90625 C-1.21628906 8.1121875 -1.20210937 7.318125 -1.1875 6.5 C-1.18105469 5.7059375 -1.17460937 4.911875 -1.16796875 4.09375 C-1 2 -1 2 0 0 Z " fill="#497F52" transform="translate(164,177)"/>
<path d="M0 0 C-3.3 1.32 -6.6 2.64 -10 4 C-8 0 -8 0 -6.125 -0.8125 C-4 -1 -4 -1 0 0 Z " fill="#D1EFD7" transform="translate(149,77)"/>
</svg>
