<svg width="83" height="105" viewBox="0 0 83 105" fill="none" xmlns="http://www.w3.org/2000/svg">
<path id="Screenshot 2025-05-06 at 21.35.10 1 (Traced)" fill-rule="evenodd" clip-rule="evenodd" d="M1.88594 0.298292C0.704638 0.744929 0.488046 1.26099 0.500494 3.59484C0.561488 14.6138 9.20651 26.1124 21.6469 31.7191C25.6165 33.508 29.0938 34.6153 32.2276 35.088C34.7949 35.4756 37.2459 36.0362 37.6735 36.3347C38.2473 36.7345 38.4465 39.6324 38.4334 47.3641L38.4154 57.852L36.1268 53.8635C33.0398 48.4819 28.8785 44.6363 23.6852 42.3649C19.9428 40.7276 18.7229 40.4956 12.8357 40.3012C4.6394 40.0305 4.27094 40.3406 5.75099 46.2713C7.17378 51.9746 10.0735 56.7597 14.729 61.0866C22.217 68.046 26.8607 69.3425 43.1169 69.0104C52.8219 68.812 54.7793 68.6118 57.7313 67.5166C67.5427 63.877 74.8894 55.5413 77.1157 45.522C78.2709 40.3232 77.8464 40.0293 69.5972 40.3099C64.1034 40.4968 62.4478 40.7861 59.4205 42.0889C54.6443 44.1445 49.9253 48.7191 46.6857 54.4334L44.0916 59.0091L44.1339 50.6202C44.1569 46.0063 44.3586 40.7994 44.5814 39.0493L44.9866 35.8673L48.4097 35.5103C57.0921 34.6049 65.294 30.8773 71.7924 24.883C78.1134 19.0536 81.6262 12.5577 82.3407 5.3785C82.8405 0.35094 82.4459 -0.0337935 76.9663 0.136877C61.231 0.627484 50.2925 8.13122 44.0673 22.7054C42.9458 25.3302 41.818 27.4784 41.5609 27.4784C40.791 27.4784 39.9738 26.1957 38.795 23.1393C34.4538 11.8825 25.2873 3.66138 14.3182 1.18752C9.41253 0.0807584 3.56702 -0.336951 1.88594 0.298292ZM22.8917 74.9191C21.3967 76.3088 21.2927 77.9784 22.6247 79.2171C24.0842 80.5732 58.0145 80.5807 60.0964 79.2252C61.8733 78.0687 61.8534 76.6044 60.0398 75.0198C58.6319 73.7909 58.2031 73.762 41.368 73.762C24.9661 73.762 24.0767 73.8175 22.8917 74.9191ZM24.8976 85.6552C24.1253 86.1579 23.5141 87.1652 23.5141 87.9364C23.5141 90.8476 25.001 91.1184 40.9958 91.1184C54.9399 91.1184 55.7963 91.0553 57.3504 89.919C58.2523 89.2601 58.9904 88.3674 58.9904 87.9364C58.9904 87.5053 58.2523 86.6126 57.3504 85.9537C55.7963 84.8174 54.9399 84.7544 40.9958 84.7544C28.6849 84.7544 26.0547 84.9013 24.8976 85.6552ZM30.9896 97.1856C28.5038 99.9695 35.0831 105.01 41.1894 105C45.9227 104.992 52.1441 101.701 52.1441 99.2053C52.1441 96.3652 51.9972 96.3253 41.5728 96.3253C33.6454 96.3253 31.6101 96.4907 30.9896 97.1856Z" fill="#539463"/>
</svg>
