<svg width="68" height="68" viewBox="0 0 68 68" fill="none" xmlns="http://www.w3.org/2000/svg">
<g id="Group 59">
<circle id="Ellipse 1" cx="34" cy="34" r="34" fill="#FFEFEB"/>
<g id="Group 12">
<path id="Vector" d="M19.2578 53.792C16.5969 55.3227 16.6326 55.4007 15.5461 55.2076C14.8225 55.0795 14.1685 54.6933 13.7011 54.12C13 53.2582 13 51.7052 13 48.6032V32.008C13 29.6459 13 28.4669 13.5576 27.4973C14.1132 26.5277 15.1258 25.9443 17.1533 24.7796L19.6686 23.3323C22.43 21.7447 23.8056 20.9479 25.3246 20.9011C26.8436 20.8544 28.2705 21.5577 31.122 22.9643L37.9505 26.3305C39.6418 27.164 39.6582 27.168 41.538 27.168H45.8C49.6663 27.168 51.5974 27.168 52.7987 28.3836C54 29.6032 54 31.5608 54 35.4778V49.1785C54 53.0976 54 55.0571 52.7987 56.2727C51.5974 57.4903 49.6663 57.4903 45.8 57.4903H41.538C39.6582 57.4903 36.967 56.041 35.2757 55.2076M39.65 28.0157V56.474" stroke="#FF7B39" stroke-width="4" stroke-linecap="round" stroke-linejoin="round"/>
<path id="Vector_2" d="M35.043 10.5C36.8156 10.5 38.5203 11.1605 39.8281 12.3447L40.085 12.5879C41.4218 13.9248 42.1727 15.7383 42.1729 17.6289C42.1729 18.9582 41.7268 20.4849 41.0244 22.0527C40.3249 23.6141 39.3876 25.1806 38.4434 26.5801C37.5002 27.978 36.5564 29.2009 35.8477 30.0742C35.522 30.4755 35.2452 30.8014 35.043 31.0371C34.8408 30.8014 34.5647 30.4752 34.2393 30.0742C33.5305 29.2009 32.5867 27.978 31.6436 26.5801C30.6993 25.1806 29.762 23.6141 29.0625 22.0527C28.3601 20.4848 27.9141 18.9582 27.9141 17.6289C27.9142 15.8564 28.5747 14.1524 29.7588 12.8447L30.002 12.5879C31.3389 11.251 33.1523 10.5001 35.043 10.5ZM35.043 14.4043C34.2412 14.4044 33.4704 14.7036 32.8789 15.2393L32.7627 15.3486C32.158 15.9533 31.8185 16.7738 31.8184 17.6289C31.8184 18.4309 32.1175 19.2023 32.6533 19.7939L32.7627 19.9092C33.3674 20.5138 34.1879 20.8544 35.043 20.8545C35.4664 20.8545 35.8861 20.7705 36.2773 20.6084C36.6198 20.4665 36.9349 20.267 37.209 20.0186L37.3232 19.9092C37.5851 19.6473 37.7999 19.3428 37.958 19.0088L38.0225 18.8633C38.1845 18.472 38.2686 18.0524 38.2686 17.6289C38.2684 16.7738 37.9279 15.9533 37.3232 15.3486C36.7185 14.7441 35.898 14.4043 35.043 14.4043Z" fill="#FF7B39" stroke="#FF7B39"/>
<g id="Vector_3">
<path d="M36.0837 47.1264C36.0837 46.6142 35.6649 46.1952 35.153 46.1952H33.2265C33.1799 45.832 33.1148 45.4781 33.0217 45.1336L34.6225 44.2117C35.0693 43.9509 35.2182 43.3829 34.9669 42.9359C34.8423 42.7222 34.6387 42.5663 34.4 42.5018C34.1614 42.4373 33.9069 42.4695 33.6918 42.5913L32.2865 43.4015C32.0259 42.9545 31.7094 42.5541 31.3651 42.2002C31.4023 41.986 31.4302 41.7718 31.4302 41.539C31.4302 40.7941 31.2069 40.0956 30.8253 39.509L31.7001 38.6336C31.7863 38.5474 31.8546 38.445 31.9013 38.3324C31.9479 38.2197 31.9719 38.099 31.9719 37.9771C31.9719 37.8551 31.9479 37.7344 31.9013 37.6218C31.8546 37.5091 31.7863 37.4068 31.7001 37.3206C31.614 37.2343 31.5117 37.166 31.3991 37.1193C31.2865 37.0726 31.1658 37.0486 31.044 37.0486C30.9221 37.0486 30.8015 37.0726 30.6889 37.1193C30.5763 37.166 30.474 37.2343 30.3878 37.3206L29.4385 38.2704C27.8749 37.4416 26.5533 37.9631 25.967 38.2704L25.027 37.3112C24.9408 37.225 24.8385 37.1566 24.7259 37.11C24.6133 37.0633 24.4927 37.0393 24.3708 37.0393C24.249 37.0393 24.1283 37.0633 24.0157 37.11C23.9031 37.1566 23.8008 37.225 23.7147 37.3112C23.5407 37.4854 23.4429 37.7215 23.4429 37.9678C23.4429 38.214 23.5407 38.4502 23.7147 38.6243L24.5895 39.4996C24.2079 40.0956 23.9846 40.7941 23.9846 41.539C23.9846 41.7718 24.0125 41.986 24.0497 42.2095C23.7054 42.5634 23.3889 42.9638 23.1283 43.4015L21.723 42.5913C21.6173 42.5307 21.5007 42.4915 21.3798 42.4761C21.259 42.4606 21.1363 42.4691 21.0187 42.5011C20.9011 42.5331 20.791 42.588 20.6947 42.6626C20.5984 42.7372 20.5177 42.83 20.4572 42.9359C20.1966 43.3829 20.3548 43.9509 20.8016 44.2117L22.4024 45.1336C22.3093 45.4781 22.2442 45.832 22.1976 46.1952H20.2618C19.7499 46.1952 19.3311 46.6142 19.3311 47.1264C19.3311 47.6386 19.7499 48.0577 20.2618 48.0577H22.1883C22.2349 48.4208 22.3 48.7747 22.3931 49.1193L20.7923 50.0412C20.3455 50.3019 20.1966 50.87 20.4479 51.317C20.7085 51.764 21.2762 51.913 21.723 51.6615L23.1283 50.8513C24.1335 52.5369 25.8088 53.645 27.7074 53.645C29.606 53.645 31.2813 52.5369 32.2865 50.8513L33.6918 51.6615C34.1386 51.9223 34.7063 51.764 34.9669 51.317C35.2275 50.87 35.0693 50.3019 34.6225 50.0412L33.0217 49.1193C33.1148 48.7747 33.1799 48.4208 33.2265 48.0577H35.153C35.6649 48.0577 36.0837 47.6386 36.0837 47.1264ZM27.7074 49.9201C27.1955 49.9201 26.7767 49.5011 26.7767 48.9889V45.264C26.7767 44.7518 27.1955 44.3327 27.7074 44.3327C28.2193 44.3327 28.6381 44.7518 28.6381 45.264V48.9889C28.6381 49.5011 28.2193 49.9201 27.7074 49.9201Z" fill="#FF7B39"/>
<path d="M27.7074 49.9201C27.1955 49.9201 26.7767 49.5011 26.7767 48.9889V45.264C26.7767 44.7518 27.1955 44.3327 27.7074 44.3327C28.2193 44.3327 28.6381 44.7518 28.6381 45.264V48.9889C28.6381 49.5011 28.2193 49.9201 27.7074 49.9201Z" fill="#FF7B39"/>
<path d="M24.3711 37.5393C24.399 37.5393 24.4269 37.5417 24.4541 37.5471L24.5342 37.5715C24.5601 37.5823 24.5851 37.596 24.6084 37.6116L24.6729 37.6643L25.6104 38.6204L25.8701 38.886L26.1992 38.7131C26.721 38.4397 27.8523 37.9957 29.2041 38.7122L29.5312 38.885L29.792 38.6243L30.7412 37.6741C30.7612 37.6541 30.7832 37.636 30.8066 37.6204L30.8799 37.5813C30.9059 37.5705 30.9334 37.5623 30.9609 37.5569L31.0439 37.5491C31.0719 37.5491 31.0997 37.5515 31.127 37.5569L31.208 37.5813C31.2337 37.592 31.2582 37.605 31.2812 37.6204L31.3467 37.6741C31.3863 37.7138 31.418 37.7609 31.4395 37.8127C31.4609 37.8647 31.4716 37.9206 31.4717 37.9768C31.4717 38.005 31.4693 38.0333 31.4639 38.0608L31.4395 38.1409C31.4287 38.1669 31.415 38.1918 31.3994 38.2151L31.3467 38.2805L30.1855 39.4417L30.4062 39.7815C30.7375 40.2908 30.9307 40.8955 30.9307 41.5393C30.9306 41.7315 30.9069 41.9141 30.8721 42.1145L30.8291 42.3665L31.0068 42.5491C31.3267 42.8778 31.6171 43.2464 31.8545 43.6536L32.1055 44.0833L32.5361 43.8342L33.9385 43.0266C34.0139 42.9839 34.0994 42.9642 34.1846 42.97L34.2695 42.9846C34.3797 43.0144 34.4737 43.0858 34.5322 43.1838C34.6345 43.3688 34.5928 43.5934 34.4424 43.7278L34.3701 43.7795L32.7725 44.7004L32.4385 44.8928L32.5391 45.2639C32.625 45.5821 32.6862 45.9134 32.7305 46.259L32.7861 46.6956H35.1533C35.3886 46.6957 35.5839 46.8901 35.584 47.1262C35.584 47.3624 35.3887 47.5577 35.1533 47.5579H32.7861L32.7305 47.9944C32.6862 48.3398 32.6249 48.6705 32.5391 48.9885L32.4385 49.3606L32.7725 49.553L34.373 50.4749C34.5595 50.5853 34.6328 50.8002 34.5703 50.9866L34.5352 51.0647C34.425 51.2536 34.2084 51.328 34.0215 51.2649L33.9443 51.2297L33.9414 51.2288L32.5361 50.4182L32.1094 50.1721L31.8574 50.595C30.9257 52.1574 29.3991 53.1448 27.707 53.1448C26.0151 53.1446 24.4893 52.1573 23.5576 50.595L23.3057 50.1721L22.8789 50.4182L21.4775 51.2258C21.267 51.3442 21.0039 51.2737 20.8818 51.0676C20.7663 50.8572 20.8366 50.5952 21.041 50.4739L21.042 50.4749L22.6426 49.553L22.9766 49.3606L22.876 48.9885C22.7901 48.6705 22.7288 48.3398 22.6846 47.9944L22.6279 47.5579H20.2617C20.0263 47.5578 19.8311 47.3625 19.8311 47.1262C19.8312 46.89 20.0263 46.6956 20.2617 46.6956H22.6377L22.6934 46.259C22.7376 45.9134 22.7988 45.5821 22.8848 45.2639L22.9854 44.8928L22.6523 44.7004L21.0527 43.7795H21.0537C20.8383 43.6538 20.7715 43.3891 20.8887 43.1877L20.457 42.9358L20.8896 43.1877L20.8916 43.1838C20.9055 43.1596 20.9212 43.1365 20.9395 43.1155L21.001 43.0579C21.0233 43.0406 21.0471 43.0254 21.0723 43.0129L21.1504 42.9836C21.1773 42.9763 21.2047 42.9719 21.2324 42.97L21.3164 42.9719C21.3716 42.979 21.4253 42.9961 21.4736 43.0237V43.0247L22.8789 43.8342L23.3057 44.0813L23.5576 43.6575C23.7961 43.257 24.0881 42.8868 24.4082 42.5579L24.585 42.3772L24.543 42.1272C24.5075 41.9143 24.4844 41.7315 24.4844 41.5393C24.4844 40.8961 24.6772 40.2897 25.0107 39.7688L25.2275 39.4309L24.9434 39.1458L24.0684 38.2708C23.9881 38.1905 23.9434 38.0816 23.9434 37.968C23.9434 37.8827 23.9681 37.7996 24.0146 37.7297L24.0684 37.6643C24.0881 37.6446 24.1098 37.627 24.1328 37.6116L24.207 37.5715C24.2589 37.55 24.3149 37.5393 24.3711 37.5393ZM28.1377 48.9885C28.1377 49.2248 27.9425 49.4202 27.707 49.4202C27.5012 49.42 27.3258 49.2709 27.2852 49.0754L27.2764 48.9885V45.2639C27.2764 45.0278 27.4717 44.8325 27.707 44.8323C27.9425 44.8323 28.1377 45.0276 28.1377 45.2639V48.9885ZM29.1377 45.2639C29.1377 44.4759 28.4953 43.8323 27.707 43.8323C26.9189 43.8325 26.2764 44.476 26.2764 45.2639V48.9885C26.2764 49.7765 26.9189 50.42 27.707 50.4202C28.446 50.4202 29.0573 49.8549 29.1309 49.135L29.1377 48.9885V45.2639Z" stroke="#FF7B39"/>
</g>
<path id="Vector 10" d="M23.0625 34.027C23.0625 35.1316 23.9579 36.027 25.0625 36.027C26.1671 36.027 27.0625 35.1316 27.0625 34.027H23.0625ZM25.0625 22.0503H23.0625V34.027H25.0625H27.0625V22.0503H25.0625Z" fill="#FF7B39"/>
</g>
</g>
</svg>
