<svg width="67" height="67" viewBox="0 0 67 67" fill="none" xmlns="http://www.w3.org/2000/svg">
<path d="M58.6193 8.37517V13.9585C58.6193 19.1413 56.5604 24.1118 52.8957 27.7765C49.2309 31.4413 44.2604 33.5002 39.0776 33.5002H36.286V36.2918H50.2443V55.8335C50.2443 57.3143 49.6561 58.7344 48.609 59.7815C47.5619 60.8286 46.1418 61.4168 44.661 61.4168H22.3276C20.8468 61.4168 19.4267 60.8286 18.3796 59.7815C17.3325 58.7344 16.7443 57.3143 16.7443 55.8335V36.2918H30.7026V27.9168C30.7026 22.7341 32.7615 17.7636 36.4263 14.0988C40.091 10.434 45.0615 8.37517 50.2443 8.37517H58.6193ZM15.3485 5.5835C18.6984 5.58079 21.9999 6.38299 24.9751 7.92257C27.9503 9.46215 30.512 11.694 32.4446 14.4303C29.4962 18.3074 27.9032 23.0459 27.911 27.9168V30.7085H26.5151C20.9622 30.7085 15.6366 28.5026 11.7101 24.5761C7.78355 20.6495 5.57764 15.324 5.57764 9.771V5.5835H15.3485Z" fill="#307C42"/>
</svg>
