<svg width="68" height="68" viewBox="0 0 68 68" fill="none" xmlns="http://www.w3.org/2000/svg">
<g id="Group 58">
<circle id="Ellipse 1" cx="34" cy="34" r="34" fill="#FDEEFF"/>
<g id="Group 16">
<g id="Group 13">
<path id="Vector" d="M11 56V51.0169C11 51.0169 22.25 46.0338 33.5 46.0338C44.75 46.0338 56 51.0169 56 51.0169V56H11ZM31.925 23.8589C29.225 14.1418 15.5 16.3842 15.5 16.3842C15.5 16.3842 15.95 35.8184 28.775 32.8285C27.875 25.603 24.5 23.6097 24.5 23.6097C30.8 23.6097 31.25 32.081 31.25 32.081V43.5422H35.75V33.0776C35.75 33.0776 35.75 23.3605 42.5 20.869C42.5 20.869 38 28.3437 38 33.3268C53.75 35.0709 53.75 11.1519 53.75 11.1519C53.75 11.1519 33.725 8.66034 31.925 23.8589Z" fill="#8F479D"/>
<g id="Group 14">
<path id="Vector_2" fill-rule="evenodd" clip-rule="evenodd" d="M51 43C53.7615 43 56 40.7615 56 38C56 35.2385 53.7615 33 51 33C48.2385 33 46 35.2385 46 38C46 40.7615 48.2385 43 51 43ZM53.033 35.967C53.1032 36.0373 53.1427 36.1326 53.1427 36.232C53.1427 36.3314 53.1032 36.4267 53.033 36.497L51.53 38L53.0325 39.5025C53.0987 39.5736 53.1348 39.6676 53.1331 39.7648C53.1314 39.8619 53.092 39.9546 53.0233 40.0233C52.9546 40.092 52.8619 40.1314 52.7648 40.1331C52.6676 40.1348 52.5736 40.0987 52.5025 40.0325L51 38.531L49.4975 40.0335C49.4632 40.0703 49.4218 40.0999 49.3758 40.1204C49.3298 40.1409 49.2801 40.1519 49.2298 40.1528C49.1794 40.1537 49.1294 40.1444 49.0827 40.1256C49.036 40.1067 48.9936 40.0786 48.958 40.043C48.9224 40.0074 48.8943 39.965 48.8754 39.9183C48.8566 39.8716 48.8473 39.8216 48.8482 39.7712C48.8491 39.7209 48.8601 39.6712 48.8806 39.6252C48.9011 39.5792 48.9307 39.5378 48.9675 39.5035L50.469 38L48.967 36.4975C48.9302 36.4632 48.9006 36.4218 48.8801 36.3758C48.8596 36.3298 48.8486 36.2801 48.8477 36.2298C48.8468 36.1794 48.8561 36.1294 48.8749 36.0827C48.8938 36.036 48.9219 35.9936 48.9575 35.958C48.9931 35.9224 49.0355 35.8943 49.0822 35.8754C49.1289 35.8566 49.1789 35.8473 49.2293 35.8482C49.2796 35.8491 49.3293 35.8601 49.3753 35.8806C49.4213 35.9011 49.4627 35.9307 49.497 35.9675L51 37.469L52.5025 35.9665C52.5728 35.8963 52.6681 35.8568 52.7675 35.8568C52.8669 35.8568 52.9622 35.8963 53.0325 35.9665" fill="#8F479D"/>
<path id="Vector_3" d="M52.0057 37.9996C52.0057 37.9996 52.8981 38.8763 53.674 39.671C54.4499 40.4657 53.5638 41.5508 52.672 40.6748C51.7803 39.7989 51.0037 39.0034 51.0037 39.0034C51.0037 39.0034 50.119 39.907 49.3307 40.6796C48.5423 41.4522 47.5576 40.4657 48.3287 39.6758C49.0998 38.8858 50.0018 37.9996 50.0018 37.9996C50.0018 37.9996 49.2102 37.1809 48.3287 36.3234C47.4472 35.4659 48.5303 34.4793 49.3307 35.3196C50.131 36.1598 51.0037 36.9958 51.0037 36.9958C51.0037 36.9958 51.8892 36.1182 52.6768 35.3243C53.4643 34.5304 54.5474 35.4183 53.6787 36.3281C52.81 37.238 52.0057 37.9996 52.0057 37.9996Z" fill="white"/>
</g>
</g>
<g id="Group 15">
<circle id="Ellipse 6" cx="16" cy="38" r="5" fill="#8F479D"/>
</g>
</g>
</g>
</svg>
